<svg width="2444" height="2444" viewBox="0 0 2444 2444" fill="none" xmlns="http://www.w3.org/2000/svg">
<g filter="url(#filter0_ng_7_2)">
<g filter="url(#filter1_n_7_2)">
<path d="M1328.27 1116C1104.52 1116 902.29 1142.9 749.995 1186.74V1176.84C597.7 1225.83 500.698 1293.91 500.698 1369.17C500.698 1381.04 503.324 1392.72 507.928 1404.18L492.339 1432.14C492.339 1432.14 479.818 1448.46 501.975 1482.91C521.519 1513.27 619.445 1632.15 671.116 1694.4C693.31 1726.32 708.376 1745.97 709.691 1744.07C711.763 1741.06 695.899 1681.14 651.821 1612.78C631.256 1576.06 606.215 1527.42 591.473 1491.49C632.634 1517.54 687.515 1541.17 749.995 1561.51V1561.2C902.29 1605.04 1104.52 1631.94 1328.27 1631.94C1584.35 1631.94 1814.11 1596.7 1968.36 1541.16V1206.78C1814.11 1151.24 1584.35 1116 1328.27 1116Z" fill="#760000"/>
<path d="M2198.5 1426.12L2172.27 1371.78C2172.41 1369.72 2172.51 1367.65 2172.51 1365.58C2172.51 1303.99 2108.46 1247.22 2000.7 1201.77V1529.4C2050.98 1508.19 2091.77 1484.52 2120.94 1459.04C2112.36 1493.56 2082.99 1563.41 2059.58 1612.53C2021.1 1682.78 2007.16 1743.93 2008.95 1746.96C2010.09 1748.87 2023.22 1728.62 2042.58 1695.81C2087.63 1631.62 2172.99 1509.07 2190.05 1477.85C2209.38 1442.47 2198.5 1426.12 2198.5 1426.12Z" fill="#760000"/>
<path d="M2350.79 1425.81L2178.39 1298.82C2176.77 1293.16 2175.15 1287.52 2173.48 1281.91L2230.11 1199.87C2235.89 1191.53 2237.05 1180.68 2233.3 1171.17C2229.54 1161.7 2221.32 1154.91 2211.59 1153.24L2115.84 1137C2112.13 1129.42 2108.24 1121.97 2104.34 1114.58L2144.57 1022.47C2148.71 1013.09 2147.83 1002.19 2142.34 993.671C2136.88 985.113 2127.6 980.117 2117.71 980.505L2020.53 984.037C2015.5 977.485 2010.39 970.995 2005.18 964.618L2027.51 865.899C2029.77 855.879 2026.92 845.382 2019.93 838.1C2012.99 830.844 2002.9 827.841 1993.31 830.192L1898.66 853.464C1892.53 848.046 1886.3 842.7 1879.99 837.461L1883.4 736.113C1883.77 725.854 1878.98 716.105 1870.77 710.412C1862.56 704.683 1852.14 703.82 1843.17 708.077L1754.86 750.059C1747.76 745.979 1740.61 741.937 1733.38 738.026L1717.77 638.16C1716.19 628.044 1709.68 619.447 1700.56 615.522C1691.47 611.574 1681.06 612.853 1673.08 618.861L1594.35 677.93C1586.6 675.357 1578.81 672.887 1570.93 670.526L1536.99 575.822C1533.55 566.167 1525.59 559.078 1515.89 557.084C1506.22 555.108 1496.27 558.457 1489.56 565.946L1423.3 640.085C1415.28 639.165 1407.27 638.326 1399.23 637.627L1348.06 551.416C1342.87 542.684 1333.72 537.372 1323.85 537.372C1314.01 537.372 1304.84 542.684 1299.7 551.416L1248.51 637.627C1240.47 638.326 1232.42 639.165 1224.42 640.085L1158.14 565.946C1151.43 558.457 1141.45 555.108 1131.81 557.084C1122.11 559.105 1114.15 566.167 1110.71 575.822L1076.75 670.526C1068.89 672.887 1061.1 675.372 1053.33 677.93L974.626 618.861C966.625 612.832 956.21 611.557 947.1 615.522C938.021 619.447 931.486 628.044 929.912 638.16L914.298 738.026C907.074 741.937 899.922 745.957 892.793 750.059L804.497 708.077C795.531 703.803 785.066 704.683 776.898 710.412C768.696 716.105 763.903 725.854 764.274 736.113L767.663 837.461C761.378 842.7 755.161 848.046 749.001 853.464L654.364 830.192C644.747 827.859 634.671 830.844 627.712 838.1C620.712 845.382 617.873 855.879 620.126 865.899L642.414 964.618C637.242 971.02 632.125 977.485 627.109 984.037L529.931 980.505C520.123 980.216 510.763 985.113 505.284 993.671C499.794 1002.19 498.964 1013.09 503.047 1022.47L543.305 1114.58C539.394 1121.97 535.511 1129.42 531.774 1137L436.023 1153.24C426.296 1154.89 418.093 1161.67 414.311 1171.17C410.553 1180.68 411.773 1191.53 417.512 1199.87L474.154 1281.91C473.716 1283.36 473.314 1284.82 472.879 1286.27L312.733 1456.38C312.733 1456.38 288.209 1475.61 323.921 1520.81C355.434 1560.68 517.204 1718.75 602.644 1801.56C638.732 1843.6 663.45 1869.64 666.034 1867.38C670.11 1863.81 648.713 1787.32 577.634 1697.57C522.847 1617.06 451.741 1493.21 468.413 1478.94C468.413 1478.94 487.38 1454.86 525.434 1437.53C526.826 1438.65 523.995 1436.43 525.434 1437.53C525.434 1437.53 1328.52 1807.99 2073.47 1443.8C2158.56 1428.54 2210.08 1474.12 2210.08 1474.12C2227.84 1484.42 2181.84 1611.76 2144.01 1696.05C2092.56 1791.77 2085.01 1866.46 2089.37 1869.05C2092.13 1870.69 2110.85 1842.21 2137.55 1796.87C2203.44 1705.06 2328 1530.03 2350.79 1487.52C2376.64 1439.32 2350.79 1425.81 2350.79 1425.81Z" fill="#F74C00"/>
<path d="M1604.91 1660.47C1607.98 1657.85 1609.59 1656.29 1609.59 1656.29L1346.69 1631.87C1561.27 1348.79 1733.03 1577.17 1751.32 1602.38V1660.47H1604.91Z" fill="#5E0000"/>
<path d="M594.611 1348.58C594.611 1348.58 377.696 1264.14 341.028 1173.25C341.028 1173.25 595.617 970.745 291.003 755.64L282.746 1029.8C282.746 1029.8 192.49 942.734 196.473 790.265C196.473 790.265 -84.2438 925.335 244.262 1164.32C244.262 1164.32 255.345 1292.59 550.76 1447.47L594.611 1348.58Z" fill="#F74C00"/>
<path d="M1476.22 1232.75C1476.22 1232.75 1556.48 1144.87 1636.74 1232.75C1636.74 1232.75 1699.8 1349.93 1636.74 1408.51C1636.74 1408.51 1533.55 1490.53 1476.22 1408.51C1476.22 1408.51 1407.43 1344.06 1476.22 1232.75Z" fill="#5E0000"/>
<path d="M1569.14 1265.35C1569.14 1299.57 1548.97 1327.31 1524.09 1327.31C1499.22 1327.31 1479.05 1299.57 1479.05 1265.35C1479.05 1231.13 1499.22 1203.39 1524.09 1203.39C1548.97 1203.39 1569.14 1231.13 1569.14 1265.35Z" fill="white"/>
<path d="M1118.02 1208.76C1118.02 1208.76 1255.69 1147.8 1293.26 1283.86C1293.26 1283.86 1332.62 1442.43 1180.21 1451.38C1180.21 1451.38 985.857 1413.95 1118.02 1208.76Z" fill="#5E0000"/>
<path d="M1187.17 1267.6C1187.17 1302.88 1166.37 1331.5 1140.71 1331.5C1115.06 1331.5 1094.25 1302.88 1094.25 1267.6C1094.25 1232.3 1115.06 1203.69 1140.71 1203.69C1166.37 1203.69 1187.17 1232.3 1187.17 1267.6Z" fill="white"/>
<path d="M2007.85 1381.85C2007.85 1381.85 1979.11 1496.35 1800.32 1616.67L1750.18 1628.42C1750.18 1628.42 1588 1332.66 1358.22 1665.95C1358.22 1665.95 1429.83 1624.26 1621.81 1675.03C1621.81 1675.03 1533.5 1810.2 1355.6 1806.04C1355.6 1806.04 1526.08 2010.57 1785.5 1715.15C1785.5 1715.15 2059.74 1609.1 2081.98 1381.85H2007.85Z" fill="#F74C00"/>
</g>
<g filter="url(#filter2_dg_7_2)">
<g filter="url(#filter3_n_7_2)">
<path d="M1744 1293H1371L1566.46 1452L1744 1293Z" fill="url(#paint0_linear_7_2)"/>
</g>
<g filter="url(#filter4_n_7_2)">
<path d="M1379 1293H1006L1201.46 1452L1379 1293Z" fill="url(#paint1_linear_7_2)"/>
</g>
</g>
</g>
<defs>
<filter id="filter0_ng_7_2" x="-3.5" y="-3.5" width="2451" height="2451" filterUnits="userSpaceOnUse" color-interpolation-filters="sRGB">
<feFlood flood-opacity="0" result="BackgroundImageFix"/>
<feBlend mode="normal" in="SourceGraphic" in2="BackgroundImageFix" result="shape"/>
<feTurbulence type="fractalNoise" baseFrequency="0.58823525905609131 0.58823525905609131" stitchTiles="stitch" numOctaves="3" result="noise" seed="9868" />
<feColorMatrix in="noise" type="luminanceToAlpha" result="alphaNoise" />
<feComponentTransfer in="alphaNoise" result="coloredNoise1">
<feFuncA type="discrete" tableValues="0 0 0 0 0 0 0 0 0 0 0 0 0 0 0 0 0 1 1 1 1 1 1 1 1 1 1 1 1 1 1 1 1 0 0 0 0 0 0 0 0 0 0 0 0 0 0 0 0 0 0 0 0 0 0 0 0 0 0 0 0 0 0 0 0 0 0 0 0 0 0 0 0 0 0 0 0 0 0 0 0 0 0 0 0 0 0 0 0 0 0 0 0 0 0 0 0 0 0 0 "/>
</feComponentTransfer>
<feComposite operator="in" in2="shape" in="coloredNoise1" result="noise1Clipped" />
<feFlood flood-color="rgba(255, 255, 255, 0.25)" result="color1Flood" />
<feComposite operator="in" in2="noise1Clipped" in="color1Flood" result="color1" />
<feMerge result="effect1_noise_7_2">
<feMergeNode in="shape" />
<feMergeNode in="color1" />
</feMerge>
<feTurbulence type="fractalNoise" baseFrequency="0.29411762952804565 0.29411762952804565" numOctaves="3" seed="4462" result="displacementX" />
<feTurbulence type="fractalNoise" baseFrequency="0.29411762952804565 0.29411762952804565" numOctaves="3" seed="4463" result="displacementY" />
<feColorMatrix in="displacementX" type="matrix" values="0 0 0 1 0  0 0 0 0 0  0 0 0 0 0  0 0 0 0 1" result="displacementXRed" />
<feColorMatrix in="displacementY" type="matrix" values="0 0 0 0 0  0 0 0 1 0  0 0 0 0 0  0 0 0 0 1" />
<feComposite in="displacementXRed" operator="arithmetic" k1="0" k2="1" k3="1" k4="0"/>
<feDisplacementMap in="effect1_noise_7_2" scale="7" xChannelSelector="R" yChannelSelector="G" width="100%" height="100%" />
<feColorMatrix type="matrix" values="0 0 0 0 0  0 0 0 0 0  0 0 0 0 0  0 0 0 1 0" />
<feComponentTransfer result="sourceDisplacedAlpha">
<feFuncA type="gamma" exponent="0.2" />
</feComponentTransfer>
<feColorMatrix in="effect1_noise_7_2" type="matrix" values="0 0 0 0 0  0 0 0 0 0  0 0 0 0 0  0 0 0 1 0" />
<feComponentTransfer result="inputSourceAlpha">
<feFuncA type="gamma" exponent="0.2" />
</feComponentTransfer>
<feComposite in="sourceDisplacedAlpha" operator="arithmetic" k1="1" k2="0" k3="0" k4="0" result="displacementAlphasMultiplied"/>
<feComposite in="displacementAlphasMultiplied"  operator="arithmetic" k1="0" k2="0" k3="-0.5" k4="0.5" result="centeringAdjustment"/>
<feComposite in="displacementX" in2="displacementAlphasMultiplied" operator="arithmetic" k1="1" k2="0" k3="0" k4="0" />
<feComposite in="centeringAdjustment" operator="arithmetic" k1="0" k2="1" k3="1" k4="0" />
<feColorMatrix  type="matrix" values="0 0 0 1 0  0 0 0 0 0  0 0 0 0 0  0 0 0 0 1" result="displacementXFinal" />
<feComposite in="displacementY" in2="displacementAlphasMultiplied" operator="arithmetic" k1="1" k2="0" k3="0" k4="0" />
<feComposite in="centeringAdjustment" operator="arithmetic" k1="0" k2="1" k3="1" k4="0" />
<feColorMatrix  type="matrix" values="0 0 0 0 0  0 0 0 1 0  0 0 0 0 0  0 0 0 0 1" result="displacementYFinal" />
<feComposite in="displacementXFinal" in2="displacementYFinal" operator="arithmetic" k1="0" k2="1" k3="1" k4="0" />
<feComposite in2="displacementAlphasMultiplied" operator="in" result="displacementMap" />
<feFlood flood-color="rgb(127, 127, 127)" flood-opacity="1"/>
<feComposite in2="displacementAlphasMultiplied" operator="out" />
<feComposite in2="displacementMap" operator="over" result="displacementMapWithBg"/>
<feDisplacementMap in="effect1_noise_7_2" scale="7" xChannelSelector="R" yChannelSelector="G" width="100%" height="100%" result="displacedImage" />
<feColorMatrix in="effect1_noise_7_2" type="matrix" values="1 0 0 0 0  0 1 0 0 0  0 0 1 0 0  0 0 0 127 0" result="imageOpaque" />
<feDisplacementMap in="imageOpaque" in2="displacementMapWithBg" scale="7" xChannelSelector="R" yChannelSelector="G" width="100%" height="100%" result="displacedImageOpaque" />
<feColorMatrix in="displacedImage" type="matrix" values="0 0 0 1 0  0 0 0 0 0  0 0 0 0 0  0 0 0 127 0" result="displacedImageRed" />
<feColorMatrix in="effect1_noise_7_2" type="matrix" values="0 0 0 1 0  0 0 0 0 0  0 0 0 0 0  0 0 0 127 0" />
<feComposite in="displacedImageRed"  operator="atop" result="transparencyRedMap"/>
<feColorMatrix in="transparencyRedMap" type="matrix" values="0 0 0 0 0  0 0 0 0 0  0 0 0 0 0  1 0 0 0 0" result="transparencyAlphaMap" />
<feComposite in="displacedImageOpaque" in2="imageOpaque" operator="over" />
<feComposite in2="transparencyAlphaMap" operator="in" result="effect2_texture_7_2"/>
</filter>
<filter id="filter1_n_7_2" x="51" y="441" width="2343" height="1562" filterUnits="userSpaceOnUse" color-interpolation-filters="sRGB">
<feFlood flood-opacity="0" result="BackgroundImageFix"/>
<feBlend mode="normal" in="SourceGraphic" in2="BackgroundImageFix" result="shape"/>
<feTurbulence type="fractalNoise" baseFrequency="0.58823525905609131 0.58823525905609131" stitchTiles="stitch" numOctaves="3" result="noise" seed="5007" />
<feColorMatrix in="noise" type="luminanceToAlpha" result="alphaNoise" />
<feComponentTransfer in="alphaNoise" result="coloredNoise1">
<feFuncA type="discrete" tableValues="0 0 0 1 1 1 1 1 1 1 1 1 1 1 1 1 1 1 1 1 1 1 1 1 1 1 1 1 1 1 1 1 1 1 1 1 1 1 1 1 1 1 1 1 1 1 1 0 0 0 0 0 0 0 0 0 0 0 0 0 0 0 0 0 0 0 0 0 0 0 0 0 0 0 0 0 0 0 0 0 0 0 0 0 0 0 0 0 0 0 0 0 0 0 0 0 0 0 0 0 "/>
</feComponentTransfer>
<feComposite operator="in" in2="shape" in="coloredNoise1" result="noise1Clipped" />
<feComponentTransfer in="alphaNoise" result="coloredNoise2">
<feFuncA type="discrete" tableValues="0 0 0 0 0 0 0 0 0 0 0 0 0 0 0 0 0 0 0 0 0 0 0 0 0 0 0 0 0 0 0 0 0 0 0 0 0 0 0 0 0 0 0 0 0 0 0 0 0 0 0 0 0 1 1 1 1 1 1 1 1 1 1 1 1 1 1 1 1 1 1 1 1 1 1 1 1 1 1 1 1 1 1 1 1 1 1 1 1 1 1 1 1 1 1 1 1 0 0 0 "/>
</feComponentTransfer>
<feComposite operator="in" in2="shape" in="coloredNoise2" result="noise2Clipped" />
<feFlood flood-color="rgba(164, 0, 179, 0.25)" result="color1Flood" />
<feComposite operator="in" in2="noise1Clipped" in="color1Flood" result="color1" />
<feFlood flood-color="rgba(132, 0, 0, 0.25)" result="color2Flood" />
<feComposite operator="in" in2="noise2Clipped" in="color2Flood" result="color2" />
<feMerge result="effect1_noise_7_2">
<feMergeNode in="shape" />
<feMergeNode in="color1" />
<feMergeNode in="color2" />
</feMerge>
</filter>
<filter id="filter2_dg_7_2" x="999.3" y="1289" width="765.4" height="187.7" filterUnits="userSpaceOnUse" color-interpolation-filters="sRGB">
<feFlood flood-opacity="0" result="BackgroundImageFix"/>
<feColorMatrix in="SourceAlpha" type="matrix" values="0 0 0 0 0 0 0 0 0 0 0 0 0 0 0 0 0 0 127 0" result="hardAlpha"/>
<feOffset dx="7" dy="11"/>
<feGaussianBlur stdDeviation="6.85"/>
<feColorMatrix type="matrix" result="shdwTex" values="0 0 0 0 0 0 0 0 0 0 0 0 0 0 0 0 0 0 0.25 0"/><feTurbulence type="fractalNoise" baseFrequency="3.3333332538604736 3.3333332538604736" numOctaves="3" seed="3084" />
<feDisplacementMap in="shdwTex" scale="8" xChannelSelector="R" yChannelSelector="G" result="displacedImage" width="100%" height="100%" />
<feBlend mode="normal" in2="BackgroundImageFix" result="effect1_dropShadow_7_2"/>
<feBlend mode="normal" in="SourceGraphic" in2="BackgroundImageFix" result="shape"/>
<feTurbulence type="fractalNoise" baseFrequency="3.3333332538604736 3.3333332538604736" numOctaves="3" seed="3084" result="displacementX" />
<feTurbulence type="fractalNoise" baseFrequency="3.3333332538604736 3.3333332538604736" numOctaves="3" seed="3085" result="displacementY" />
<feColorMatrix in="displacementX" type="matrix" values="0 0 0 1 0  0 0 0 0 0  0 0 0 0 0  0 0 0 0 1" result="displacementXRed" />
<feColorMatrix in="displacementY" type="matrix" values="0 0 0 0 0  0 0 0 1 0  0 0 0 0 0  0 0 0 0 1" />
<feComposite in="displacementXRed" operator="arithmetic" k1="0" k2="1" k3="1" k4="0"/>
<feDisplacementMap in="shape" scale="8" xChannelSelector="R" yChannelSelector="G" width="100%" height="100%" />
<feColorMatrix type="matrix" values="0 0 0 0 0  0 0 0 0 0  0 0 0 0 0  0 0 0 1 0" />
<feComponentTransfer result="sourceDisplacedAlpha">
<feFuncA type="gamma" exponent="0.2" />
</feComponentTransfer>
<feColorMatrix in="shape" type="matrix" values="0 0 0 0 0  0 0 0 0 0  0 0 0 0 0  0 0 0 1 0" />
<feComponentTransfer result="inputSourceAlpha">
<feFuncA type="gamma" exponent="0.2" />
</feComponentTransfer>
<feComposite in="sourceDisplacedAlpha" operator="arithmetic" k1="1" k2="0" k3="0" k4="0" result="displacementAlphasMultiplied"/>
<feComposite in="displacementAlphasMultiplied"  operator="arithmetic" k1="0" k2="0" k3="-0.5" k4="0.5" result="centeringAdjustment"/>
<feComposite in="displacementX" in2="displacementAlphasMultiplied" operator="arithmetic" k1="1" k2="0" k3="0" k4="0" />
<feComposite in="centeringAdjustment" operator="arithmetic" k1="0" k2="1" k3="1" k4="0" />
<feColorMatrix  type="matrix" values="0 0 0 1 0  0 0 0 0 0  0 0 0 0 0  0 0 0 0 1" result="displacementXFinal" />
<feComposite in="displacementY" in2="displacementAlphasMultiplied" operator="arithmetic" k1="1" k2="0" k3="0" k4="0" />
<feComposite in="centeringAdjustment" operator="arithmetic" k1="0" k2="1" k3="1" k4="0" />
<feColorMatrix  type="matrix" values="0 0 0 0 0  0 0 0 1 0  0 0 0 0 0  0 0 0 0 1" result="displacementYFinal" />
<feComposite in="displacementXFinal" in2="displacementYFinal" operator="arithmetic" k1="0" k2="1" k3="1" k4="0" />
<feComposite in2="displacementAlphasMultiplied" operator="in" result="displacementMap" />
<feFlood flood-color="rgb(127, 127, 127)" flood-opacity="1"/>
<feComposite in2="displacementAlphasMultiplied" operator="out" />
<feComposite in2="displacementMap" operator="over" result="displacementMapWithBg"/>
<feDisplacementMap in="shape" scale="8" xChannelSelector="R" yChannelSelector="G" width="100%" height="100%" result="displacedImage" />
<feColorMatrix in="shape" type="matrix" values="1 0 0 0 0  0 1 0 0 0  0 0 1 0 0  0 0 0 127 0" result="imageOpaque" />
<feDisplacementMap in="imageOpaque" in2="displacementMapWithBg" scale="8" xChannelSelector="R" yChannelSelector="G" width="100%" height="100%" result="displacedImageOpaque" />
<feColorMatrix in="displacedImage" type="matrix" values="0 0 0 1 0  0 0 0 0 0  0 0 0 0 0  0 0 0 127 0" result="displacedImageRed" />
<feColorMatrix in="shape" type="matrix" values="0 0 0 1 0  0 0 0 0 0  0 0 0 0 0  0 0 0 127 0" />
<feComposite in="displacedImageRed"  operator="atop" result="transparencyRedMap"/>
<feColorMatrix in="transparencyRedMap" type="matrix" values="0 0 0 0 0  0 0 0 0 0  0 0 0 0 0  1 0 0 0 0" result="transparencyAlphaMap" />
<feComposite in="displacedImageOpaque" in2="imageOpaque" operator="over" />
<feComposite in2="transparencyAlphaMap" operator="in" result="effect2_texture_7_2"/>
<feBlend mode="normal" in="effect2_texture_7_2" in2="effect1_dropShadow_7_2" result="effect2_texture_7_2"/>
</filter>
<filter id="filter3_n_7_2" x="1371" y="1293" width="373" height="159" filterUnits="userSpaceOnUse" color-interpolation-filters="sRGB">
<feFlood flood-opacity="0" result="BackgroundImageFix"/>
<feBlend mode="normal" in="SourceGraphic" in2="BackgroundImageFix" result="shape"/>
<feTurbulence type="fractalNoise" baseFrequency="2 2" stitchTiles="stitch" numOctaves="3" result="noise" seed="552" />
<feColorMatrix in="noise" type="luminanceToAlpha" result="alphaNoise" />
<feComponentTransfer in="alphaNoise" result="coloredNoise1">
<feFuncA type="discrete" tableValues="1 1 1 1 1 1 1 1 1 1 1 1 1 1 1 1 1 1 1 1 1 1 1 1 1 1 1 1 1 1 1 1 1 1 1 1 1 1 1 1 1 1 1 1 1 1 1 1 1 1 1 0 0 0 0 0 0 0 0 0 0 0 0 0 0 0 0 0 0 0 0 0 0 0 0 0 0 0 0 0 0 0 0 0 0 0 0 0 0 0 0 0 0 0 0 0 0 0 0 0 "/>
</feComponentTransfer>
<feComposite operator="in" in2="shape" in="coloredNoise1" result="noise1Clipped" />
<feFlood flood-color="rgba(0, 0, 0, 0.25)" result="color1Flood" />
<feComposite operator="in" in2="noise1Clipped" in="color1Flood" result="color1" />
<feMerge result="effect1_noise_7_2">
<feMergeNode in="shape" />
<feMergeNode in="color1" />
</feMerge>
</filter>
<filter id="filter4_n_7_2" x="1006" y="1293" width="373" height="159" filterUnits="userSpaceOnUse" color-interpolation-filters="sRGB">
<feFlood flood-opacity="0" result="BackgroundImageFix"/>
<feBlend mode="normal" in="SourceGraphic" in2="BackgroundImageFix" result="shape"/>
<feTurbulence type="fractalNoise" baseFrequency="2 2" stitchTiles="stitch" numOctaves="3" result="noise" seed="552" />
<feColorMatrix in="noise" type="luminanceToAlpha" result="alphaNoise" />
<feComponentTransfer in="alphaNoise" result="coloredNoise1">
<feFuncA type="discrete" tableValues="1 1 1 1 1 1 1 1 1 1 1 1 1 1 1 1 1 1 1 1 1 1 1 1 1 1 1 1 1 1 1 1 1 1 1 1 1 1 1 1 1 1 1 1 1 1 1 1 1 1 1 0 0 0 0 0 0 0 0 0 0 0 0 0 0 0 0 0 0 0 0 0 0 0 0 0 0 0 0 0 0 0 0 0 0 0 0 0 0 0 0 0 0 0 0 0 0 0 0 0 "/>
</feComponentTransfer>
<feComposite operator="in" in2="shape" in="coloredNoise1" result="noise1Clipped" />
<feFlood flood-color="rgba(0, 0, 0, 0.25)" result="color1Flood" />
<feComposite operator="in" in2="noise1Clipped" in="color1Flood" result="color1" />
<feMerge result="effect1_noise_7_2">
<feMergeNode in="shape" />
<feMergeNode in="color1" />
</feMerge>
</filter>
<linearGradient id="paint0_linear_7_2" x1="1567" y1="1303.5" x2="1704" y2="1463" gradientUnits="userSpaceOnUse">
<stop stop-color="#82D5FF"/>
<stop offset="0.43593" stop-color="#13406B"/>
<stop offset="0.682692" stop-color="#5B0039"/>
</linearGradient>
<linearGradient id="paint1_linear_7_2" x1="1202" y1="1303.5" x2="1339" y2="1463" gradientUnits="userSpaceOnUse">
<stop stop-color="#82D5FF"/>
<stop offset="0.43593" stop-color="#13406B"/>
<stop offset="0.682692" stop-color="#5B0039"/>
</linearGradient>
</defs>
</svg>
